# xmcd CD database file
#
# Track frame offsets:
#	150
#	88318
#	109362
#	122763
#	145335
#	164598
#	202091
#	238327
#
# Disc length: 3536 seconds
#
# Revision: 0
# Processed by: cddbd v1.5.2PL0 Copyright (c) Steve Scherf et al.
# Submitted via: CDex 1.51
#
DISCID=7f0dce08
DTITLE=Sonny Rollins - Freedom Suite - A Night at the Village Vanguard - Newk's Time CD1
DYEAR=1957
DGENRE=Jazz
TTITLE0=The Freedom Suite
TTITLE1=Someday I'll Find You
TTITLE2=Will You Still Be Mine
TTITLE3=Til There Was You
TTITLE4=Shadow Waltz
TTITLE5=Old Devil Moon
TTITLE6=Softly, As In a Morning Sunrise
TTITLE7=Striver's Row
EXTD=YEAR: 1957
EXTT0=
EXTT1=
EXTT2=
EXTT3=
EXTT4=
EXTT5=
EXTT6=
EXTT7=
PLAYORDER=
